<svg width="17" height="18" viewBox="0 0 17 18" fill="none" xmlns="http://www.w3.org/2000/svg">
<path d="M8.6138 8.25362C8.54297 8.24654 8.45797 8.24654 8.38005 8.25362C6.69422 8.19695 5.35547 6.8157 5.35547 5.1157C5.35547 3.38029 6.75797 1.9707 8.50047 1.9707C10.2359 1.9707 11.6455 3.38029 11.6455 5.1157C11.6384 6.8157 10.2996 8.19695 8.6138 8.25362Z" stroke="#AAAAAA" stroke-linecap="round" stroke-linejoin="round"/>
<path d="M5.07176 10.8687C3.35759 12.0162 3.35759 13.8862 5.07176 15.0266C7.01967 16.3299 10.2143 16.3299 12.1622 15.0266C13.8763 13.8791 13.8763 12.0091 12.1622 10.8687C10.2213 9.57242 7.02676 9.57242 5.07176 10.8687Z" stroke="#AAAAAA" stroke-linecap="round" stroke-linejoin="round"/>
</svg>
