<svg width="89" height="89" viewBox="0 0 89 89" fill="none" xmlns="http://www.w3.org/2000/svg">
<path d="M44.5 89C69.0782 89 89 69.0782 89 44.5C89 19.9218 69.0782 0 44.5 0C19.9218 0 0 19.9218 0 44.5C0 69.0782 19.9218 89 44.5 89ZM32.04 29.046C32.0402 28.5093 32.1825 27.9822 32.4524 27.5183C32.7223 27.0544 33.1102 26.6702 33.5767 26.4047C34.0432 26.1393 34.5717 26.0021 35.1084 26.0071C35.6451 26.012 36.1709 26.159 36.6324 26.433L62.5955 41.887C63.0476 42.1566 63.422 42.5389 63.682 42.9967C63.942 43.4544 64.0787 43.9718 64.0787 44.4982C64.0787 45.0246 63.942 45.542 63.682 45.9998C63.422 46.4575 63.0476 46.8399 62.5955 47.1095L36.6324 62.5634C36.1714 62.8385 35.6456 62.9864 35.1088 62.992C34.572 62.9977 34.0432 62.861 33.5765 62.5958C33.1097 62.3305 32.7216 61.9463 32.4517 61.4822C32.1818 61.0182 32.0397 60.4908 32.04 59.954V29.046Z" fill="#F58244"/>
</svg>
