<svg width="24" height="24" viewBox="0 0 24 24" fill="none" xmlns="http://www.w3.org/2000/svg">
<path d="M17.24 16.11L18 7H6L6.93 20.07C6.94775 20.3229 7.06089 20.5596 7.24653 20.7323C7.43218 20.9049 7.67648 21.0006 7.93 21H11L12 19H14" stroke="#F58244" stroke-width="2" stroke-linecap="round" stroke-linejoin="round"/>
<path d="M5 7.00042H19M17 7.00042L16.19 3.76042C16.1352 3.53855 16.0062 3.34212 15.8242 3.20384C15.6423 3.06556 15.4184 2.99377 15.19 3.00042H8.78C8.55157 2.99377 8.32774 3.06556 8.14579 3.20384C7.96385 3.34212 7.83475 3.53855 7.78 3.76042L7 7.00042H17ZM19 18.5004C19 18.006 18.8534 17.5226 18.5787 17.1115C18.304 16.7004 17.9135 16.3799 17.4567 16.1907C16.9999 16.0015 16.4972 15.952 16.0123 16.0485C15.5273 16.1449 15.0819 16.383 14.7322 16.7327C14.3826 17.0823 14.1445 17.5277 14.048 18.0127C13.9516 18.4977 14.0011 19.0003 14.1903 19.4571C14.3795 19.9139 14.7 20.3044 15.1111 20.5791C15.5222 20.8538 16.0055 21.0004 16.5 21.0004C17.163 21.0004 17.7989 20.737 18.2678 20.2682C18.7366 19.7994 19 19.1635 19 18.5004Z" stroke="#F58244" stroke-width="2" stroke-linecap="round" stroke-linejoin="round"/>
</svg>
