<svg width="8" height="5" viewBox="0 0 8 5" fill="none" xmlns="http://www.w3.org/2000/svg">
<path fill-rule="evenodd" clip-rule="evenodd" d="M0.364901 1.02599C0.223999 1.1709 0.222853 1.40635 0.362341 1.55226L3.31804 4.64487C3.38319 4.71409 3.46173 4.76934 3.5489 4.80726C3.63607 4.84517 3.73004 4.86496 3.82509 4.86543C3.92015 4.86589 4.0143 4.84701 4.10184 4.80995C4.18937 4.77288 4.26845 4.7184 4.33427 4.64982L7.34195 1.56393C7.40918 1.49389 7.44722 1.40089 7.44836 1.30382C7.4495 1.20675 7.41365 1.11288 7.34809 1.04128C7.31572 1.00581 7.2764 0.977364 7.23259 0.957705C7.18878 0.938045 7.14139 0.92759 7.09338 0.926985C7.04536 0.926381 6.99772 0.935641 6.95343 0.954191C6.90914 0.972742 6.86912 1.00019 6.83586 1.03483L4.08396 3.85918C4.05105 3.8935 4.0115 3.92076 3.96771 3.93931C3.92393 3.95786 3.87683 3.96731 3.82928 3.96708C3.78173 3.96685 3.73473 3.95694 3.69113 3.93797C3.64753 3.91899 3.60824 3.89134 3.57567 3.85671L0.872835 1.02847C0.840291 0.993836 0.801038 0.966195 0.757467 0.947224C0.713897 0.928254 0.666921 0.918351 0.619399 0.91812C0.571879 0.917889 0.524808 0.927334 0.481054 0.945879C0.437302 0.964425 0.397781 0.991683 0.364901 1.02599Z" fill="white"/>
</svg>
