<svg width="18" height="17" viewBox="0 0 18 17" fill="none" xmlns="http://www.w3.org/2000/svg">
<path d="M17.3666 15.7816H0.633431C0.290322 15.7816 0 16.0608 0 16.3908C0 16.7208 0.290322 17 0.633431 17H17.3666C17.7097 17 18 16.7208 18 16.3908C18 16.0608 17.7097 15.7816 17.3666 15.7816ZM3.20286 10.4513L3.17647 13.3195C3.17647 13.4718 3.22926 13.6495 3.36122 13.751C3.49319 13.8526 3.65154 13.9287 3.8099 13.9287L6.79231 13.9033C6.95066 13.9033 7.10902 13.8272 7.24099 13.7256L17.4815 3.87719C17.719 3.64875 17.719 3.24263 17.4815 3.01418L14.5254 0.171333C14.2879 -0.0571109 13.8656 -0.0571109 13.6281 0.171333L11.5694 2.15118L3.38761 10.0198C3.25565 10.1467 3.20286 10.299 3.20286 10.4513ZM16.1354 3.44569L14.9741 4.56252L12.9155 2.58268L14.0768 1.46585L16.1354 3.44569ZM4.46973 10.7051L12.0181 3.44569L14.0768 5.42553L6.52838 12.685H4.46973V10.7051Z" fill="#F58244"/>
</svg>
