<svg width="17" height="17" viewBox="0 0 17 17" fill="none" xmlns="http://www.w3.org/2000/svg">
<path d="M11.0355 8.50001C11.0355 9.90251 9.9022 11.0358 8.4997 11.0358C7.0972 11.0358 5.96387 9.90251 5.96387 8.50001C5.96387 7.09751 7.0972 5.96417 8.4997 5.96417C9.9022 5.96417 11.0355 7.09751 11.0355 8.50001Z" stroke="#AAAAAA" stroke-linecap="round" stroke-linejoin="round"/>
<path d="M8.50038 14.3579C11.0008 14.3579 13.3312 12.8846 14.9533 10.3346C15.5908 9.33584 15.5908 7.65709 14.9533 6.65834C13.3312 4.10834 11.0008 2.63501 8.50038 2.63501C5.99996 2.63501 3.66954 4.10834 2.04746 6.65834C1.40996 7.65709 1.40996 9.33584 2.04746 10.3346C3.66954 12.8846 5.99996 14.3579 8.50038 14.3579Z" stroke="#AAAAAA" stroke-linecap="round" stroke-linejoin="round"/>
</svg>
