<svg width="18" height="18" viewBox="0 0 18 18" fill="none" xmlns="http://www.w3.org/2000/svg">
<path d="M0.815838 13.0369C1.55724 12.2752 3.66466 10.8482 5.04591 10.8482C5.36584 10.8482 5.64513 10.9193 5.87365 11.0666C6.54904 11.4982 7.08732 11.8334 7.34631 11.8334C7.48849 11.8334 7.64084 11.7064 7.97599 11.417L8.03185 11.3662C8.96115 10.5588 9.1592 10.3506 9.51974 9.9748L9.61115 9.87832C9.67717 9.8123 9.73302 9.75137 9.78888 9.69551C10.1037 9.37051 10.3322 9.13691 11.1397 8.22285L11.1752 8.18223C11.5611 7.74551 11.8151 7.46113 11.8303 7.25293C11.8455 7.0498 11.6678 6.71973 11.2158 6.10527C10.6674 5.36387 10.6471 4.4498 11.1498 3.38848C11.551 2.55059 12.2061 1.74824 12.785 1.04238L12.8358 0.981445C13.3334 0.37207 13.9123 0.0673828 14.5572 0.0673828C15.2733 0.0673828 15.8674 0.45332 16.1822 0.656445C16.2076 0.67168 16.233 0.691992 16.2584 0.707227C16.9643 1.1541 17.4772 1.76855 17.6701 2.39316C17.9596 3.33262 18.1526 4.55137 16.7662 7.08535C15.5678 9.2791 14.4811 10.7518 12.7545 12.524C11.1295 14.1896 10.4084 14.7279 8.79357 15.8959C6.99592 17.1959 5.26935 17.9424 4.06076 17.9424C2.93849 17.9424 2.0549 17.9424 0.795525 16.424C-0.524788 14.8295 0.0236503 13.8545 0.815838 13.0369ZM1.39982 15.8756C2.41545 17.1045 2.99943 17.1045 4.05568 17.1045C5.08654 17.1045 6.68615 16.3936 8.33146 15.2104C9.90568 14.0729 10.6065 13.5498 12.1858 11.9299C13.8565 10.2186 14.9076 8.7916 16.0654 6.67402C17.2893 4.43457 17.1522 3.45449 16.9033 2.64707C16.7713 2.21543 16.3752 1.75332 15.8369 1.41816C15.8115 1.40293 15.7861 1.38262 15.7557 1.36738C15.4865 1.19473 15.0397 0.905273 14.5522 0.905273C14.1459 0.905273 13.7854 1.1084 13.4401 1.52988L13.3893 1.59082C12.0944 3.1752 11.0838 4.57676 11.8455 5.6127C12.3838 6.33887 12.6682 6.83145 12.6225 7.33926C12.5819 7.83184 12.2518 8.20254 11.7541 8.76113L11.7186 8.80176C10.901 9.72598 10.6674 9.96973 10.3424 10.2998C10.2865 10.3557 10.2307 10.4166 10.1647 10.4826L10.0733 10.5791C9.69748 10.9701 9.48927 11.1834 8.53459 12.0213L8.47873 12.0721C8.07248 12.4275 7.77287 12.6865 7.33615 12.6865C6.8842 12.6865 6.38654 12.4021 5.44201 11.7979C5.34552 11.7369 5.20842 11.7014 5.03576 11.7014C3.93381 11.7014 2.03459 12.9607 1.36935 13.6463C0.759977 14.2658 0.455291 14.733 1.39982 15.8756Z" fill="#AAAAAA"/>
</svg>
