<svg width="12" height="7" viewBox="0 0 12 7" fill="none" xmlns="http://www.w3.org/2000/svg">
<path fill-rule="evenodd" clip-rule="evenodd" d="M0.205732 0.218992C-0.028 0.459363 -0.0299003 0.849939 0.201485 1.09198L5.10447 6.22207C5.21253 6.3369 5.34283 6.42855 5.48742 6.49144C5.63202 6.55434 5.7879 6.58717 5.94558 6.58793C6.10326 6.5887 6.25945 6.55739 6.40465 6.4959C6.54985 6.43442 6.68103 6.34404 6.79021 6.23027L11.7794 1.11134C11.8909 0.995153 11.9541 0.840882 11.9559 0.679854C11.9578 0.518827 11.8984 0.363116 11.7896 0.244346C11.7359 0.185509 11.6707 0.138325 11.598 0.105713C11.5253 0.0731012 11.4467 0.0557571 11.3671 0.0547546C11.2874 0.0537522 11.2084 0.0691126 11.1349 0.0998849C11.0615 0.130657 10.9951 0.176186 10.9399 0.233652L6.37499 4.91875C6.3204 4.97568 6.25479 5.02091 6.18216 5.05168C6.10954 5.08245 6.03141 5.09812 5.95253 5.09773C5.87365 5.09735 5.79568 5.08092 5.72335 5.04944C5.65103 5.01797 5.58586 4.9721 5.53183 4.91464L1.04831 0.223092C0.99432 0.165649 0.929207 0.119796 0.856931 0.0883276C0.784654 0.0568589 0.706729 0.0404325 0.6279 0.0400489C0.549072 0.0396654 0.47099 0.0553327 0.39841 0.0860967C0.325831 0.116861 0.260274 0.162077 0.205732 0.218992Z" fill="black"/>
</svg>
