<svg width="15" height="22" viewBox="0 0 15 22" fill="none" xmlns="http://www.w3.org/2000/svg">
<path d="M0.239787 22H14.1839C14.2475 22 14.3085 21.9747 14.3534 21.9297C14.3984 21.8848 14.4237 21.8238 14.4237 21.7602V15.4737C14.4237 13.2559 13.4266 11.1949 11.6884 9.819C11.67 9.80484 11.6495 9.79345 11.6278 9.78519C11.6258 9.78447 11.6244 9.78279 11.6225 9.78183C11.6196 9.78063 11.6165 9.78135 11.6136 9.78039C11.5864 9.77095 11.5577 9.76656 11.529 9.76744L11.5254 9.76792C11.5082 9.76874 11.4911 9.77148 11.4745 9.77608C11.4693 9.77752 11.4659 9.78207 11.4609 9.78375C11.4377 9.79235 11.416 9.80448 11.3966 9.81972C11.3887 9.82571 11.3798 9.83003 11.3726 9.83698C11.347 9.86127 11.3272 9.89102 11.3146 9.92403L8.8304 16.6714L8.14269 13.0185L8.4477 11.6363C8.45448 11.6009 8.4533 11.5644 8.44426 11.5295C8.43522 11.4946 8.41854 11.4621 8.39543 11.4344C8.3904 11.428 8.38176 11.4253 8.37601 11.4196C8.35226 11.3961 8.32416 11.3774 8.29328 11.3647C8.26578 11.353 8.23635 11.3465 8.20648 11.3455C8.20528 11.3455 8.20432 11.3448 8.20312 11.3448C8.2 11.3448 8.19761 11.3464 8.19473 11.3464C8.18154 11.3469 8.16835 11.3469 8.15516 11.3496C7.56337 11.4704 6.86079 11.4704 6.269 11.3496C6.25323 11.3462 6.23716 11.3445 6.22104 11.3445H6.21073C6.17713 11.3447 6.14398 11.3522 6.11361 11.3666C6.10019 11.3726 6.08988 11.3829 6.07765 11.3913C6.06422 11.4009 6.05031 11.4095 6.03904 11.4217C6.03449 11.4265 6.02777 11.4287 6.02369 11.434C6.0129 11.4474 6.00931 11.4642 6.00163 11.479C5.99876 11.4853 5.99516 11.4908 5.99276 11.4973C5.98253 11.5236 5.97709 11.5515 5.9767 11.5798C5.9767 11.5812 5.97598 11.5824 5.97598 11.5841C5.97598 11.5855 5.9767 11.5867 5.9767 11.5881C5.97694 11.6042 5.97286 11.6198 5.97646 11.6356L6.28147 13.0178L5.59376 16.6707L3.10908 9.92427C3.09642 9.89131 3.0766 9.86158 3.05105 9.83722C3.04386 9.83027 3.03523 9.82619 3.02731 9.8202C3.00783 9.80484 2.98607 9.79263 2.96281 9.78399C2.95778 9.78231 2.95442 9.77776 2.94914 9.77632C2.93298 9.77203 2.91644 9.76938 2.89975 9.7684C2.89783 9.7684 2.89615 9.76768 2.89447 9.76744C2.86579 9.7667 2.83721 9.77108 2.81007 9.78039C2.80719 9.78135 2.80407 9.78063 2.80119 9.78183C2.79928 9.78255 2.79784 9.78423 2.79592 9.78519C2.77458 9.79382 2.75372 9.80437 2.73525 9.819C0.997035 11.1949 1.19909e-07 13.2559 1.19909e-07 15.4737V21.7599C-3.13896e-05 21.7914 0.00614742 21.8226 0.0181838 21.8518C0.0302201 21.8809 0.0478779 21.9073 0.0701474 21.9296C0.0924168 21.9519 0.118861 21.9696 0.147969 21.9817C0.177077 21.9937 0.208278 22 0.239787 22ZM13.9446 15.4737V21.5201H7.55593L8.50573 18.9405L11.6477 10.4084C13.1116 11.6874 13.9446 13.5151 13.9446 15.4737ZM7.90459 11.8713L7.70532 12.7751H6.71884L6.51957 11.8713C6.74426 11.9004 6.97397 11.9205 7.21208 11.9205C7.45043 11.9205 7.68014 11.9004 7.90459 11.8713ZM6.72507 13.2547H7.69909L8.50741 17.5485L7.21208 21.066L5.91675 17.5483L6.72507 13.2547ZM0.479575 15.4737C0.479575 13.5151 1.3126 11.6874 2.77626 10.4084L5.91819 18.9405L6.86799 21.5201H0.479575V15.4737Z" fill="#F58244"/>
<path d="M7.21203 10.8794C10.2115 10.8794 12.6516 8.43931 12.6516 5.43981C12.6516 2.44032 10.2115 0 7.21203 0C4.21254 0 1.77246 2.44032 1.77246 5.43981C1.77246 8.43931 4.21254 10.8794 7.21203 10.8794ZM7.21203 10.3998C4.73575 10.3998 2.68341 8.57359 2.3163 6.1985C6.86938 6.12561 8.73324 4.2778 9.44349 3.16303C9.52388 3.45958 9.66826 3.73492 9.86648 3.96968C10.3403 4.52742 11.1052 4.82428 12.1353 4.86073C12.1576 5.05112 12.172 5.24367 12.172 5.43981C12.172 8.17459 9.94705 10.3998 7.21203 10.3998ZM7.21203 0.479575C9.58281 0.479575 11.5675 2.15233 12.055 4.37899C11.2177 4.33415 10.6053 4.09509 10.2358 3.66347C9.73507 3.07863 9.84706 2.31754 9.84826 2.31083C9.8581 2.25053 9.84451 2.18875 9.81028 2.13814C9.77603 2.08754 9.72374 2.05195 9.6641 2.03867C9.60441 2.02552 9.54196 2.03554 9.48938 2.06671C9.4368 2.09787 9.39803 2.14785 9.38091 2.20652C9.33991 2.34824 8.31601 5.63644 2.26618 5.71845C2.26091 5.62565 2.25204 5.53381 2.25204 5.43957C2.25204 2.7048 4.47702 0.479575 7.21203 0.479575Z" fill="#F58244"/>
</svg>
