<svg width="19" height="26" viewBox="0 0 19 26" fill="none" xmlns="http://www.w3.org/2000/svg">
<path d="M9.05866 11.0951C10.2506 11.0951 11.3937 10.6216 12.2366 9.77878C13.0794 8.93595 13.5529 7.79282 13.5529 6.60088V3.35662C13.5492 2.4651 13.1924 1.61136 12.5607 0.982274C11.929 0.353186 11.0737 -7.73886e-06 10.1822 1.27177e-10H7.93511C7.04115 1.27178e-10 6.18381 0.355123 5.55169 0.987245C4.91956 1.61937 4.56444 2.47671 4.56444 3.37066V6.60088C4.56444 7.79282 5.03794 8.93595 5.88077 9.77878C6.7236 10.6216 7.86672 11.0951 9.05866 11.0951ZM5.12622 3.35662C5.12993 2.61409 5.42751 1.90324 5.95387 1.37951C6.48024 0.855775 7.19257 0.561768 7.93511 0.561777H10.2103C10.9553 0.561777 11.6697 0.857713 12.1965 1.38448C12.7233 1.91125 13.0192 2.6257 13.0192 3.37066V4.45209C12.7383 4.45209 12.0866 3.89031 11.6147 3.32853C11.5784 3.28579 11.5301 3.25492 11.476 3.2399C11.4219 3.22488 11.3646 3.2264 11.3114 3.24426C9.98559 3.67121 6.46606 4.67118 5.12622 4.34535V3.35662ZM5.12622 4.92117C6.81155 5.2161 10.3592 4.12906 11.2861 3.82851C11.6456 4.23018 12.4097 4.99982 12.9911 4.99982V6.60088C12.9911 7.64383 12.5768 8.64406 11.8393 9.38154C11.1018 10.119 10.1016 10.5333 9.05866 10.5333C8.01571 10.5333 7.01548 10.119 6.278 9.38154C5.54053 8.64406 5.12622 7.64383 5.12622 6.60088V4.92117ZM0.280889 25.1395H17.8364C17.9109 25.1395 17.9824 25.1099 18.035 25.0573C18.0877 25.0046 18.1173 24.9331 18.1173 24.8586V20.7801C18.1151 18.5278 17.219 16.3685 15.6258 14.7764C14.0327 13.1843 11.8727 12.2896 9.62044 12.2889H8.49688C6.24457 12.2896 4.08464 13.1843 2.49149 14.7764C0.898333 16.3685 0.00223284 18.5278 0 20.7801V24.8586C0 24.9331 0.0295933 25.0046 0.0822702 25.0573C0.134947 25.1099 0.206392 25.1395 0.280889 25.1395ZM13.0501 13.6231L11.7299 15.8197L10.4182 12.89C11.332 12.9802 12.2228 13.2303 13.0501 13.6287V13.6231ZM9.62044 12.8507H9.78054L10.4294 14.3029L9.81425 14.9208H8.29745L7.6823 14.3029L8.33116 12.8507H9.62044ZM8.43228 15.4854H9.67381L10.2356 21.9992L9.05866 23.5244L7.87331 21.9992L8.43228 15.4854ZM7.69354 12.89L6.38741 15.8253L5.06723 13.6287C5.89453 13.2303 6.78537 12.9802 7.69916 12.89H7.69354ZM0.561777 20.7801C0.56233 19.3811 0.932879 18.0071 1.63584 16.7976C2.3388 15.588 3.34916 14.5858 4.56444 13.8928L6.17955 16.578C6.20476 16.6195 6.24025 16.6536 6.28258 16.6773C6.32491 16.7009 6.37264 16.7132 6.42112 16.7129H6.43797C6.48909 16.7097 6.53836 16.6925 6.58045 16.6633C6.62253 16.6341 6.65582 16.5939 6.67672 16.5472L7.42951 14.8618L7.88454 15.3141L7.29749 22.0554C7.29164 22.126 7.31271 22.1963 7.35647 22.252L8.83114 24.148C8.8574 24.1818 8.89104 24.2092 8.9295 24.228C8.96796 24.2469 9.01022 24.2567 9.05304 24.2567C9.09587 24.2567 9.13812 24.2469 9.17658 24.228C9.21504 24.2092 9.24869 24.1818 9.27494 24.148L10.744 22.2576C10.7878 22.2019 10.8088 22.1316 10.803 22.061L10.2159 15.3197L10.671 14.8674L11.4237 16.5528C11.4446 16.5995 11.4779 16.6397 11.52 16.6689C11.5621 16.6981 11.6114 16.7153 11.6625 16.7185H11.6822C11.7302 16.7183 11.7773 16.7058 11.8191 16.6822C11.8609 16.6586 11.896 16.6247 11.9209 16.5837L13.5529 13.8928C14.7682 14.5858 15.7785 15.588 16.4815 16.7976C17.1844 18.0071 17.555 19.3811 17.5555 20.7801V24.5778H15.4854V21.3475H14.9236V24.5778H3.19651V21.3475H2.63474V24.5778H0.561777V20.7801Z" fill="#F58244"/>
</svg>
