<svg width="14" height="18" viewBox="0 0 14 18" fill="none" xmlns="http://www.w3.org/2000/svg">
<path d="M7 17.8182C7.14354 17.8173 7.28258 17.768 7.39455 17.6782C7.63636 17.4618 14 12.3327 14 7C14 5.14348 13.2625 3.36301 11.9497 2.05025C10.637 0.737498 8.85652 0 7 0C5.14348 0 3.36301 0.737498 2.05025 2.05025C0.737498 3.36301 0 5.14348 0 7C0 12.3327 6.36364 17.4618 6.60545 17.6782C6.71742 17.768 6.85646 17.8173 7 17.8182ZM1.27273 7C1.27273 5.48103 1.87613 4.02428 2.95021 2.95021C4.02428 1.87613 5.48103 1.27273 7 1.27273C8.51897 1.27273 9.97572 1.87613 11.0498 2.95021C12.1239 4.02428 12.7273 5.48103 12.7273 7C12.7273 11.0091 8.35545 15.1518 7 16.3482C5.64455 15.1518 1.27273 11.0091 1.27273 7Z" fill="white"/>
<path d="M10.182 7.00018C10.182 6.37088 9.99539 5.7557 9.64577 5.23246C9.29614 4.70921 8.79921 4.30139 8.21781 4.06056C7.63641 3.81974 6.99665 3.75673 6.37944 3.8795C5.76223 4.00227 5.19528 4.30531 4.75029 4.75029C4.30531 5.19528 4.00227 5.76223 3.8795 6.37944C3.75673 6.99665 3.81974 7.63641 4.06056 8.21781C4.30139 8.79921 4.70921 9.29614 5.23246 9.64577C5.7557 9.99539 6.37088 10.182 7.00018 10.182C7.84405 10.182 8.65336 9.84677 9.25007 9.25007C9.84677 8.65336 10.182 7.84405 10.182 7.00018ZM5.09109 7.00018C5.09109 6.6226 5.20305 6.25349 5.41283 5.93955C5.6226 5.6256 5.92076 5.3809 6.2696 5.23641C6.61844 5.09191 7.0023 5.05411 7.37263 5.12777C7.74295 5.20143 8.08312 5.38326 8.35011 5.65025C8.6171 5.91724 8.79893 6.25741 8.87259 6.62773C8.94625 6.99806 8.90844 7.38192 8.76395 7.73076C8.61946 8.0796 8.37476 8.37776 8.06081 8.58753C7.74686 8.7973 7.37776 8.90927 7.00018 8.90927C6.49386 8.90927 6.00827 8.70814 5.65025 8.35011C5.29222 7.99209 5.09109 7.5065 5.09109 7.00018Z" fill="white"/>
</svg>
