<svg width="11" height="14" viewBox="0 0 11 14" fill="none" xmlns="http://www.w3.org/2000/svg">
<path d="M5.5 14C5.61278 13.9993 5.72203 13.9606 5.81 13.89C6 13.72 11 9.69 11 5.5C11 4.04131 10.4205 2.64236 9.38909 1.61091C8.35764 0.579463 6.95869 0 5.5 0C4.04131 0 2.64236 0.579463 1.61091 1.61091C0.579463 2.64236 0 4.04131 0 5.5C0 9.69 5 13.72 5.19 13.89C5.27797 13.9606 5.38722 13.9993 5.5 14ZM1 5.5C1 4.30653 1.47411 3.16193 2.31802 2.31802C3.16193 1.47411 4.30653 1 5.5 1C6.69347 1 7.83807 1.47411 8.68198 2.31802C9.52589 3.16193 10 4.30653 10 5.5C10 8.65 6.565 11.905 5.5 12.845C4.435 11.905 1 8.65 1 5.5Z" fill="black" fill-opacity="0.4"/>
<path d="M8 5.5C8 5.00555 7.85338 4.5222 7.57868 4.11108C7.30397 3.69995 6.91353 3.37952 6.45671 3.1903C5.9999 3.00108 5.49723 2.95157 5.01228 3.04804C4.52732 3.1445 4.08187 3.3826 3.73223 3.73223C3.3826 4.08187 3.1445 4.52732 3.04804 5.01228C2.95157 5.49723 3.00108 5.99989 3.1903 6.45671C3.37952 6.91353 3.69995 7.30397 4.11108 7.57868C4.5222 7.85338 5.00555 8 5.5 8C6.16304 8 6.79893 7.73661 7.26777 7.26777C7.73661 6.79893 8 6.16304 8 5.5ZM4 5.5C4 5.20333 4.08797 4.91332 4.2528 4.66665C4.41762 4.41997 4.65189 4.22771 4.92598 4.11418C5.20007 4.00065 5.50167 3.97095 5.79264 4.02882C6.08361 4.0867 6.35088 4.22956 6.56066 4.43934C6.77044 4.64912 6.9133 4.91639 6.97118 5.20737C7.02906 5.49834 6.99935 5.79994 6.88582 6.07403C6.77229 6.34812 6.58003 6.58238 6.33336 6.74721C6.08668 6.91203 5.79667 7 5.5 7C5.10218 7 4.72065 6.84197 4.43934 6.56066C4.15804 6.27936 4 5.89783 4 5.5Z" fill="black" fill-opacity="0.4"/>
</svg>
