<svg width="16" height="16" viewBox="0 0 16 16" fill="none" xmlns="http://www.w3.org/2000/svg">
<path d="M0.730522 11.6091C1.39407 10.9273 3.28019 9.65 4.51639 9.65C4.80271 9.65 5.05268 9.71364 5.2572 9.84546C5.86167 10.2318 6.34342 10.5318 6.57521 10.5318C6.70246 10.5318 6.83881 10.4182 7.13877 10.1591L7.18876 10.1136C8.02047 9.39091 8.19772 9.20455 8.52041 8.86818L8.60221 8.78182C8.6613 8.72273 8.71129 8.66818 8.76128 8.61818C9.04306 8.32727 9.24758 8.11818 9.97021 7.3L10.002 7.26364C10.3474 6.87273 10.5747 6.61818 10.5883 6.43182C10.6019 6.25 10.4429 5.95455 10.0384 5.40455C9.54754 4.74091 9.52936 3.92273 9.9793 2.97273C10.3383 2.22273 10.9246 1.50455 11.4427 0.872728L11.4882 0.818182C11.9336 0.272727 12.4517 0 13.0289 0C13.6697 0 14.2015 0.345454 14.4833 0.527273C14.506 0.540909 14.5287 0.559091 14.5514 0.572727C15.1832 0.972727 15.6422 1.52273 15.8149 2.08182C16.074 2.92273 16.2467 4.01364 15.0059 6.28182C13.9333 8.24546 12.9607 9.56364 11.4155 11.15C9.96112 12.6409 9.31576 13.1227 7.87049 14.1682C6.26161 15.3318 4.71636 16 3.63469 16C2.63027 16 1.83947 16 0.712343 14.6409C-0.469319 13.2136 0.0215248 12.3409 0.730522 11.6091ZM1.25318 14.15C2.16215 15.25 2.68481 15.25 3.63014 15.25C4.55275 15.25 5.98438 14.6136 7.45691 13.5545C8.86581 12.5364 9.493 12.0682 10.9065 10.6182C12.4017 9.08636 13.3425 7.80909 14.3787 5.91364C15.474 3.90909 15.3513 3.03182 15.1286 2.30909C15.0105 1.92273 14.656 1.50909 14.1742 1.20909C14.1515 1.19545 14.1288 1.17727 14.1015 1.16364C13.8606 1.00909 13.4607 0.75 13.0244 0.75C12.6608 0.75 12.3381 0.931818 12.029 1.30909L11.9836 1.36364C10.8246 2.78182 9.92022 4.03636 10.6019 4.96364C11.0837 5.61364 11.3382 6.05455 11.2973 6.50909C11.261 6.95 10.9655 7.28182 10.5201 7.78182L10.4883 7.81818C9.75661 8.64545 9.54754 8.86364 9.25667 9.15909C9.20668 9.20909 9.15668 9.26364 9.0976 9.32273L9.01579 9.40909C8.67947 9.75909 8.49314 9.95 7.6387 10.7L7.58871 10.7455C7.22512 11.0636 6.95697 11.2955 6.56612 11.2955C6.16163 11.2955 5.71623 11.0409 4.87089 10.5C4.78453 10.4455 4.66182 10.4136 4.5073 10.4136C3.52106 10.4136 1.82129 11.5409 1.22591 12.1545C0.680529 12.7091 0.407838 13.1273 1.25318 14.15Z" fill="white"/>
</svg>
