<svg width="17" height="16" viewBox="0 0 17 16" fill="none" xmlns="http://www.w3.org/2000/svg">
<path d="M13.7156 15.3501L12.546 9.74127L17 5.88602L11.0126 5.2091L8.52384 0L5.99426 5.18976L8.7738e-05 5.82478L4.42347 9.71226L3.20967 15.3114L8.47285 12.5231L13.7156 15.3501Z" fill="#FFD759"/>
<path d="M8.50004 7.675L17 5.88599L12.546 9.74124L8.50004 7.675Z" fill="#FABD3B"/>
<path d="M8.49927 7.67456L13.7148 15.3496L8.47207 12.5226L3.2089 15.3109L8.49927 7.67456Z" fill="#FABD3B"/>
<path d="M8.5 7.67448L4.3869e-05 5.82422L4.42342 9.7117L8.5 7.67448Z" fill="#FABD3B"/>
<path d="M8.52344 0L8.49964 7.67504L5.99385 5.18976L8.52344 0Z" fill="#FABD3B"/>
</svg>
