<svg width="33" height="24" viewBox="0 0 33 24" fill="none" xmlns="http://www.w3.org/2000/svg">
<path d="M26.552 11.998C26.466 11.998 26.382 11.998 26.3 12C26.432 11.342 26.5 10.67 26.5 10C26.5 4.486 22.014 0 16.5 0C10.99 0 6.5 4.442 6.494 9.898L6.51 10.1C3.084 10.59 0.5 13.556 0.5 17C0.5 20.492 3.016 23.496 6.5 24H11.5C11.7652 24 12.0196 23.8946 12.2071 23.7071C12.3946 23.5196 12.5 23.2652 12.5 23C12.5 22.7348 12.3946 22.4804 12.2071 22.2929C12.0196 22.1054 11.7652 22 11.5 22L6.646 22.01C4.322 21.668 2.5 19.466 2.5 17C2.5 14.544 4.344 12.43 6.792 12.08L7.652 11.956C7.8902 11.9218 8.10809 11.8029 8.26569 11.6211C8.42329 11.4392 8.51003 11.2066 8.51 10.966L8.494 9.902C8.5 5.544 12.09 2 16.5 2C20.912 2 24.5 5.588 24.5 10C24.5 10.542 24.446 11.088 24.336 11.618L24.072 12.89C24.006 13.208 24.1 13.536 24.32 13.774C24.54 14.01 24.856 14.132 25.184 14.082C25.206 14.08 25.832 13.998 26.552 13.998C28.73 13.998 30.5 15.792 30.5 18C30.5 20.206 28.706 22 26.5 22H19.5C16.7 22 16.51 20.322 16.5 20V13.364L18.866 15.728C19.0546 15.9102 19.3072 16.011 19.5694 16.0087C19.8316 16.0064 20.0824 15.9012 20.2678 15.7158C20.4532 15.5304 20.5584 15.2796 20.5607 15.0174C20.563 14.7552 20.4622 14.5026 20.28 14.314L16.256 10.292C16.1624 10.1988 16.0513 10.125 15.9291 10.0749C15.807 10.0248 15.6761 9.99935 15.544 10C15.528 10 15.516 9.992 15.5 9.992C15.3639 9.99223 15.2294 10.0206 15.1048 10.0753C14.9802 10.13 14.8682 10.2099 14.776 10.31L10.748 14.334C10.5658 14.5226 10.465 14.7752 10.4673 15.0374C10.4696 15.2996 10.5748 15.5504 10.7602 15.7358C10.9456 15.9212 11.1964 16.0264 11.4586 16.0287C11.7208 16.031 11.9734 15.9302 12.162 15.748L14.5 13.412V20C14.5 21.382 15.544 24 19.5 24H26.5C29.808 24 32.5 21.308 32.5 18C32.5 14.692 29.832 11.998 26.552 11.998Z" fill="black"/>
</svg>
