<svg width="15" height="21" viewBox="0 0 15 21" fill="none" xmlns="http://www.w3.org/2000/svg">
<path d="M7.49549 9.45381C7.40018 9.44428 7.28581 9.44428 7.18098 9.45381C4.91265 9.37757 3.11133 7.51906 3.11133 5.23167C3.11133 2.89663 4.99842 1 7.343 1C9.67804 1 11.5747 2.89663 11.5747 5.23167C11.5651 7.51906 9.76382 9.37757 7.49549 9.45381Z" stroke="white" stroke-linecap="round" stroke-linejoin="round"/>
<path d="M2.72984 12.9712C0.423387 14.5152 0.423387 17.0313 2.72984 18.5658C5.35081 20.3194 9.64919 20.3194 12.2702 18.5658C14.5766 17.0218 14.5766 14.5056 12.2702 12.9712C9.65872 11.2271 5.36034 11.2271 2.72984 12.9712Z" stroke="white" stroke-linecap="round" stroke-linejoin="round"/>
</svg>
