<svg width="19" height="19" viewBox="0 0 19 19" fill="none" xmlns="http://www.w3.org/2000/svg">
<path d="M18.62 9.711C18.62 8.9299 18.5566 8.3599 18.4194 7.7688H9.5V11.2943H14.7355C14.63 12.1704 14.06 13.4899 12.7933 14.3765L12.7755 14.4945L15.5957 16.6793L15.7911 16.6988C17.5855 15.0415 18.62 12.6032 18.62 9.711Z" fill="#4285F4"/>
<path d="M9.49937 19C12.0643 19 14.2176 18.1555 15.7905 16.6989L12.7927 14.3766C11.9905 14.9361 10.9138 15.3266 9.49937 15.3266C6.98717 15.3266 4.85497 13.6695 4.0949 11.3789L3.98349 11.3884L1.05104 13.6578L1.0127 13.7644C2.5749 16.8677 5.78379 19 9.49937 19Z" fill="#34A853"/>
<path d="M4.09551 11.3788C3.89496 10.7877 3.77889 10.1543 3.77889 9.4999C3.77889 8.84541 3.89496 8.2121 4.08496 7.621L4.07964 7.49511L1.11045 5.18921L1.01331 5.23542C0.369448 6.52321 0 7.96935 0 9.4999C0 11.0304 0.369448 12.4765 1.01331 13.7643L4.09551 11.3788Z" fill="#FBBC05"/>
<path d="M9.49937 3.6733C11.2832 3.6733 12.4865 4.44385 13.1727 5.08779L15.8538 2.47C14.2072 0.939447 12.0643 0 9.49937 0C5.78379 0 2.5749 2.1322 1.0127 5.23551L4.08435 7.62109C4.85497 5.33054 6.98717 3.6733 9.49937 3.6733Z" fill="#EB4335"/>
</svg>
