<svg width="29" height="28" viewBox="0 0 29 28" fill="none" xmlns="http://www.w3.org/2000/svg">
<path d="M19.6098 5.14062C18.7039 5.04404 17.7935 4.9971 16.8826 5.00014C13.8625 5.00014 11.9859 6.93771 11.9859 10.0576V12.1754H9.44898C9.20114 12.1753 9.00011 12.3776 9 12.6273V16.1117C8.99984 16.3614 9.20065 16.5639 9.44849 16.564H11.9859V23.5476C11.9857 23.7973 12.1865 23.9998 12.4344 24H16.0065C16.2544 24.0002 16.4554 23.7978 16.4555 23.5481V16.564H18.9846C19.2102 16.564 19.4008 16.3954 19.4301 16.17L19.8764 12.6861C19.9085 12.4385 19.7352 12.2116 19.4894 12.1793C19.47 12.1767 19.4505 12.1754 19.4309 12.1754H16.4555V10.403C16.4555 9.52568 16.6309 9.15901 17.72 9.15901L19.551 9.15813C19.7989 9.15824 19.9998 8.95596 20 8.70624V5.58947C20.0001 5.36239 19.8332 5.17044 19.6098 5.14062ZM19.102 8.25337L17.72 8.25425C15.782 8.25425 15.5576 9.48062 15.5576 10.403V12.6279C15.5574 12.8775 15.7582 13.0801 16.006 13.0802H18.9205L18.5899 15.6593H16.0065C15.7587 15.6592 15.5577 15.8615 15.5576 16.1112V23.0952H12.8838V16.1117C12.884 15.862 12.6832 15.6595 12.4354 15.6593H9.89796V13.0802H12.4349C12.6827 13.0804 12.8837 12.878 12.8838 12.6283V10.0576C12.8838 7.45729 14.3789 5.90489 16.8826 5.90489C17.7884 5.90489 18.6066 5.95437 19.102 5.99767V8.25337Z" fill="white"/>
</svg>
