<svg width="18" height="20" viewBox="0 0 18 20" fill="none" xmlns="http://www.w3.org/2000/svg">
<path d="M12.3564 12.7753C13.3597 11.4244 13.9934 9.69163 13.9934 7.78267C13.9934 3.49486 10.8515 0 6.9967 0C3.14191 0 0 3.49486 0 7.78267C0 12.0705 3.14191 15.5653 6.9967 15.5653C8.68647 15.5653 10.2706 14.8899 11.4851 13.7445L16.9241 19.7944C17.0561 19.9413 17.2145 20 17.3729 20C17.5314 20 17.6898 19.9413 17.8218 19.7944C18.0594 19.5301 18.0594 19.0602 17.8218 18.7959L12.3564 12.7753ZM6.9703 14.1557C3.80198 14.1557 1.24092 11.3069 1.24092 7.78267C1.24092 4.25844 3.80198 1.40969 6.9703 1.40969C10.1386 1.40969 12.6997 4.25844 12.6997 7.78267C12.6997 11.3069 10.1386 14.1557 6.9703 14.1557Z" fill="white"/>
</svg>
