<svg width="34" height="34" viewBox="0 0 34 34" fill="none" xmlns="http://www.w3.org/2000/svg">
<path d="M29.5221 23.9563L30.9134 22.565V19.7824C26.7395 19.7824 26.7395 18.3911 26.7395 18.3911C26.7395 18.7601 26.5929 19.114 26.332 19.3749C26.0711 19.6358 25.7172 19.7824 25.3482 19.7824V22.565L26.7395 23.9563M29.5221 23.9563H26.7395M29.5221 23.9563V26.0433H31.6091L33.0004 27.4346V29.5215H23.9569M26.7395 23.9563V26.0433H24.6525L23.2612 27.4346" stroke="#FFFFFA" stroke-linejoin="round"/>
<path d="M25.3475 19.7826L24.6519 19.087V18.3913C24.6519 17.4689 25.0183 16.5841 25.6706 15.9318C26.3229 15.2795 27.2076 14.9131 28.1301 14.9131C29.0526 14.9131 29.9373 15.2795 30.5896 15.9318C31.2419 16.5841 31.6084 17.4689 31.6084 18.3913V19.087L30.9127 19.7826" stroke="#FFFFFA" stroke-linejoin="round"/>
<path d="M26.7388 26.0435L28.1301 27.4348L29.5214 26.0435" stroke="#FFFFFA" stroke-linejoin="round"/>
<path d="M28.1304 27.4346V29.5215" stroke="#FFFFFA" stroke-linejoin="round"/>
<path d="M13.521 17V21.8696L15.608 23.9566H18.3906L20.4775 21.8696V17C20.2019 17.0057 19.928 16.9556 19.6722 16.8528C19.4164 16.7499 19.1841 16.5964 18.9892 16.4014C18.7942 16.2065 18.6407 15.9742 18.5378 15.7184C18.435 15.4626 18.3849 15.1887 18.3906 14.9131C18.3906 14.9131 18.3906 17 13.521 17Z" stroke="#FFFFFA" stroke-linejoin="round"/>
<path d="M19.0866 19.0869H17.6953" stroke="#FFFFFA" stroke-linejoin="round"/>
<path d="M16.3044 19.0869H14.9131" stroke="#FFFFFA" stroke-linejoin="round"/>
<path d="M18.3913 20.4784C18.3913 20.8474 18.2447 21.2013 17.9838 21.4622C17.7229 21.7231 17.369 21.8697 17 21.8697C16.631 21.8697 16.2771 21.7231 16.0162 21.4622C15.7553 21.2013 15.6087 20.8474 15.6087 20.4784M12.1304 17.0001V15.6088C12.1304 14.3173 12.6435 13.0787 13.5567 12.1655C14.4699 11.2523 15.7085 10.7393 17 10.7393C18.2915 10.7393 19.5301 11.2523 20.4433 12.1655C21.3565 13.0787 21.8695 14.3173 21.8695 15.6088V17.0001M13.5217 17.0001H11.4348V18.3914C11.4348 18.7604 11.5813 19.1143 11.8423 19.3752C12.1032 19.6361 12.4571 19.7827 12.8261 19.7827H13.5217M20.4782 17.0001H22.5652V18.3914C22.5652 18.7604 22.4186 19.1143 22.1577 19.3752C21.8968 19.6361 21.5429 19.7827 21.1739 19.7827H20.4782M18.3913 23.9566V26.0436H22.5652L23.9565 27.4349V33.0001H10.0435V27.4349L11.4348 26.0436H15.6087V23.9566" stroke="#FFFFFA" stroke-linejoin="round"/>
<path d="M21.1743 33.0001V28.8262" stroke="#FFFFFA" stroke-linejoin="round"/>
<path d="M12.8257 33.0001V28.8262" stroke="#FFFFFA" stroke-linejoin="round"/>
<path d="M18.391 26.0435L16.9997 27.4348L15.6084 26.0435" stroke="#FFFFFA" stroke-linejoin="round"/>
<path d="M17 27.4346V32.9998" stroke="#FFFFFA" stroke-linejoin="round"/>
<path d="M10.0435 17.6956H7.95652V21.1739L4.47826 17.6956H1V1H17.6956V8.65217" stroke="#FFFFFA" stroke-linejoin="round"/>
<path d="M4.479 10.0435L7.26161 12.8261L14.2181 5.86963" stroke="#FFFFFA" stroke-linejoin="round"/>
<path d="M17.6953 2.39111H32.9997V10.7389H26.0431V13.5215L23.2605 10.7389H21.8692" stroke="#FFFFFA" stroke-linejoin="round"/>
<path d="M19.7822 5.17383H21.1735" stroke="#FFFFFA" stroke-linejoin="round"/>
<path d="M22.5649 5.17383H30.9128" stroke="#FFFFFA" stroke-linejoin="round"/>
<path d="M19.7822 7.95654H30.9127" stroke="#FFFFFA" stroke-linejoin="round"/>
</svg>
