<svg width="32" height="31" viewBox="0 0 32 31" fill="none" xmlns="http://www.w3.org/2000/svg">
<path d="M28.5714 0H8.57143C7.81367 0 7.08694 0.291613 6.55112 0.810687C6.01531 1.32976 5.71429 2.03378 5.71429 2.76786V5.49696H6.85714V2.76786C6.85714 2.32741 7.03775 1.905 7.35925 1.59355C7.68074 1.28211 8.11677 1.10714 8.57143 1.10714H26.0229C25.4581 1.7151 25.1448 2.50355 25.1429 3.32143V28.2321C25.1429 28.6726 24.9622 29.095 24.6408 29.4064C24.3193 29.7179 23.8832 29.8929 23.4286 29.8929H22.9029C21.6057 29.76 21.1429 28.6196 21.1429 27.6786C21.1409 27.0919 21.3793 26.5285 21.8057 26.112C22.2857 25.6802 22.4571 25.5086 22.9143 25.4643C23.0658 25.4643 23.2112 25.406 23.3183 25.3021C23.4255 25.1983 23.4857 25.0575 23.4857 24.9107C23.4857 24.7639 23.4255 24.6231 23.3183 24.5193C23.2112 24.4155 23.0658 24.3571 22.9143 24.3571C22.8571 24.3571 22.8057 24.3571 6.85714 24.3571V19.84H5.71429V24.3571H3.42857C2.51926 24.3571 1.64719 24.7071 1.00421 25.33C0.361224 25.9529 0 26.7977 0 27.6786C0 28.5595 0.361224 29.4043 1.00421 30.0272C1.64719 30.6501 2.51926 31 3.42857 31H23.4286C24.1863 31 24.9131 30.7084 25.4489 30.1893C25.9847 29.6702 26.2857 28.9662 26.2857 28.2321V11.0714H31.4286C31.5801 11.0714 31.7255 11.0131 31.8326 10.9093C31.9398 10.8055 32 10.6647 32 10.5179V3.32143C32 2.44053 31.6388 1.59571 30.9958 0.972824C30.3528 0.349935 29.4807 0 28.5714 0ZM1.14286 27.6786C1.14286 27.0913 1.38367 26.5281 1.81233 26.1128C2.24098 25.6976 2.82236 25.4643 3.42857 25.4643H20.8743C20.3116 26.0731 20.0003 26.8614 20 27.6786C19.9833 28.4749 20.2406 29.2539 20.7314 29.8929H3.42857C2.82236 29.8929 2.24098 29.6596 1.81233 29.2443C1.38367 28.829 1.14286 28.2658 1.14286 27.6786ZM30.8571 9.96429H26.2857V3.32143C26.2857 2.73416 26.5265 2.17095 26.9552 1.75569C27.3838 1.34043 27.9652 1.10714 28.5714 1.10714C29.1776 1.10714 29.759 1.34043 30.1877 1.75569C30.6163 2.17095 30.8571 2.73416 30.8571 3.32143V9.96429ZM6.28571 18.8214C7.52891 18.8214 8.74419 18.4643 9.77787 17.7952C10.8116 17.1261 11.6172 16.1751 12.093 15.0624C12.5687 13.9497 12.6932 12.7254 12.4507 11.5442C12.2081 10.363 11.6095 9.27797 10.7304 8.42637C9.85131 7.57476 8.73131 6.99482 7.512 6.75986C6.29269 6.5249 5.02884 6.64549 3.88028 7.10638C2.73171 7.56726 1.75002 8.34774 1.05933 9.34912C0.368651 10.3505 0 11.5278 0 12.7321C0 14.3471 0.662243 15.896 1.84104 17.0379C3.01984 18.1799 4.61864 18.8214 6.28571 18.8214ZM6.28571 7.75C7.30288 7.75 8.29719 8.0422 9.14293 8.58964C9.98867 9.13709 10.6478 9.91519 11.0371 10.8256C11.4263 11.7359 11.5282 12.7377 11.3298 13.7041C11.1313 14.6706 10.6415 15.5583 9.92226 16.255C9.20302 16.9518 8.28665 17.4263 7.28904 17.6186C6.29142 17.8108 5.25736 17.7121 4.31763 17.335C3.37789 16.958 2.57469 16.3194 2.00959 15.5001C1.44448 14.6808 1.14286 13.7175 1.14286 12.7321C1.14286 11.4108 1.68469 10.1436 2.64917 9.20924C3.61364 8.2749 4.92174 7.75 6.28571 7.75ZM6.28571 14.3929C6.6394 14.3919 6.98411 14.285 7.27261 14.0868C7.5611 13.8886 7.77925 13.6087 7.89714 13.2857H9.71429V12.1786H7.89714C7.81182 11.9464 7.67423 11.7355 7.49434 11.5613C7.31446 11.387 7.0968 11.2537 6.85714 11.1711V8.85714H5.71429V11.1711C5.33636 11.3039 5.01865 11.5612 4.8167 11.898C4.61475 12.2348 4.54141 12.6296 4.60949 13.0134C4.67757 13.3973 4.88274 13.7457 5.18915 13.9979C5.49555 14.25 5.88369 14.3898 6.28571 14.3929ZM6.28571 12.1786C6.39873 12.1786 6.50921 12.211 6.60318 12.2719C6.69715 12.3327 6.7704 12.4191 6.81365 12.5203C6.8569 12.6215 6.86821 12.7328 6.84616 12.8401C6.82411 12.9475 6.76969 13.0462 6.68978 13.1236C6.60986 13.201 6.50804 13.2537 6.39719 13.2751C6.28635 13.2964 6.17145 13.2855 6.06704 13.2436C5.96262 13.2017 5.87338 13.1307 5.81059 13.0397C5.7478 12.9487 5.71429 12.8416 5.71429 12.7321C5.71429 12.5853 5.77449 12.4445 5.88165 12.3407C5.98882 12.2369 6.13416 12.1786 6.28571 12.1786ZM22.8571 5.53571H9.14286V4.42857H22.8571V5.53571ZM9.14286 20.4821H22.8571V21.5893H9.14286V20.4821ZM22.8571 8.30357H11.3886C11.001 7.87966 10.5571 7.50737 10.0686 7.19643H22.8571V8.30357ZM22.8571 11.625H13.0457C12.9825 11.2478 12.883 10.8771 12.7486 10.5179H22.8571V11.625ZM22.8571 14.9464H12.7486C12.883 14.5872 12.9825 14.2165 13.0457 13.8393H22.8571V14.9464ZM22.8571 18.2679H10.0686C10.5571 17.9569 11.001 17.5846 11.3886 17.1607H22.8571V18.2679Z" fill="white"/>
</svg>
