<svg width="30" height="30" viewBox="0 0 30 30" fill="none" xmlns="http://www.w3.org/2000/svg">
<path d="M12.272 21.6006L3.01436 27.4294L1 28.6979V12.583L3.01436 14.1945L4.32986 15.247L5.46965 16.1585L12.272 21.6006Z" stroke="white" stroke-width="0.7" stroke-miterlimit="10" stroke-linecap="round" stroke-linejoin="round"/>
<path d="M3.01436 12.5823V14.1937L1 12.5823M3.01436 12.5823H1M3.01436 12.5823V10.8975L1 12.5823M28.6975 12.5823L26.6831 14.187V12.5823M28.6975 12.5823H26.6831M28.6975 12.5823L26.6831 10.8975V12.5823" stroke="white" stroke-width="0.7" stroke-miterlimit="10" stroke-linecap="round" stroke-linejoin="round"/>
<path d="M3.01436 12.583V14.1945L1 12.583H3.01436ZM28.6975 12.583L26.6831 14.1878V12.583H28.6975ZM28.6975 28.6979H1L3.01436 27.4294L12.272 21.6006L14.1365 20.4267C14.3414 20.2977 14.5787 20.2291 14.8209 20.2289C15.0631 20.2287 15.3005 20.2969 15.5057 20.4256L17.3796 21.6006L26.6831 27.435L28.6975 28.6979Z" stroke="white" stroke-width="0.7" stroke-miterlimit="10" stroke-linecap="round" stroke-linejoin="round"/>
<path d="M28.6968 12.583V28.6979L26.6825 27.435L17.3789 21.6006L26.6825 14.1878L28.6968 12.583Z" stroke="white" stroke-width="0.7" stroke-miterlimit="10" stroke-linecap="round" stroke-linejoin="round"/>
<path d="M26.6825 1V14.1874L17.3789 21.6002L15.505 20.4252C15.2998 20.2965 15.0624 20.2283 14.8202 20.2285C14.578 20.2287 14.3407 20.2973 14.1358 20.4263L12.2714 21.6002L5.46896 16.1581L4.32916 15.2466L3.01367 14.1941V1H26.6825Z" stroke="white" stroke-width="0.7" stroke-miterlimit="10" stroke-linecap="round" stroke-linejoin="round"/>
<path d="M22.4026 8.05024C23.9323 8.05024 25.1723 6.81018 25.1723 5.28049C25.1723 3.7508 23.9323 2.51074 22.4026 2.51074C20.8729 2.51074 19.6328 3.7508 19.6328 5.28049C19.6328 6.81018 20.8729 8.05024 22.4026 8.05024Z" stroke="white" stroke-width="0.7" stroke-miterlimit="10" stroke-linecap="round" stroke-linejoin="round"/>
<path d="M20.8457 5.28082L21.8844 6.31944L23.9617 4.24219" stroke="white" stroke-width="0.7" stroke-miterlimit="10" stroke-linecap="round" stroke-linejoin="round"/>
<path d="M4.77687 4.52542C5.19406 4.52542 5.53226 4.18722 5.53226 3.77004C5.53226 3.35285 5.19406 3.01465 4.77687 3.01465C4.35968 3.01465 4.02148 3.35285 4.02148 3.77004C4.02148 4.18722 4.35968 4.52542 4.77687 4.52542Z" stroke="white" stroke-width="0.7" stroke-miterlimit="10" stroke-linecap="round" stroke-linejoin="round"/>
<path d="M4.77687 7.54691C5.19406 7.54691 5.53226 7.20871 5.53226 6.79152C5.53226 6.37433 5.19406 6.03613 4.77687 6.03613C4.35968 6.03613 4.02148 6.37433 4.02148 6.79152C4.02148 7.20871 4.35968 7.54691 4.77687 7.54691Z" stroke="white" stroke-width="0.7" stroke-miterlimit="10" stroke-linecap="round" stroke-linejoin="round"/>
<path d="M4.77687 10.5684C5.19406 10.5684 5.53226 10.2302 5.53226 9.813C5.53226 9.39582 5.19406 9.05762 4.77687 9.05762C4.35968 9.05762 4.02148 9.39582 4.02148 9.813C4.02148 10.2302 4.35968 10.5684 4.77687 10.5684Z" stroke="white" stroke-width="0.7" stroke-miterlimit="10" stroke-linecap="round" stroke-linejoin="round"/>
<path d="M4.77687 13.5899C5.19406 13.5899 5.53226 13.2517 5.53226 12.8345C5.53226 12.4173 5.19406 12.0791 4.77687 12.0791C4.35968 12.0791 4.02148 12.4173 4.02148 12.8345C4.02148 13.2517 4.35968 13.5899 4.77687 13.5899Z" stroke="white" stroke-width="0.7" stroke-miterlimit="10" stroke-linecap="round" stroke-linejoin="round"/>
<path d="M6.53972 4.02148H18.1223M6.53972 7.04303H18.1223M6.53972 10.0646H18.1223M6.53972 13.0861H18.1223M6.53972 16.1077H18.1223M5.53254 15.8559C5.53254 15.9633 5.51016 16.0657 5.46987 16.158L4.33008 15.2465C4.45542 15.1548 4.60985 15.1005 4.77716 15.1005C5.19458 15.1005 5.53254 15.4385 5.53254 15.8559Z" stroke="white" stroke-width="0.7" stroke-miterlimit="10" stroke-linecap="round" stroke-linejoin="round"/>
</svg>
