<svg width="22" height="28" viewBox="0 0 22 28" fill="none" xmlns="http://www.w3.org/2000/svg">
<path d="M11.0052 13.616C14.489 13.616 17.3132 10.7918 17.3132 7.30798C17.3132 3.82418 14.489 1 11.0052 1C7.52144 1 4.69727 3.82418 4.69727 7.30798C4.69727 10.7918 7.52144 13.616 11.0052 13.616Z" stroke="white" stroke-width="1.5" stroke-linecap="round" stroke-linejoin="round"/>
<path fill-rule="evenodd" clip-rule="evenodd" d="M1.00002 22.389C0.998347 21.9456 1.09752 21.5075 1.29007 21.1081C1.89428 19.8996 3.59817 19.2592 5.01204 18.9691C6.03172 18.7515 7.06548 18.6062 8.10563 18.5341C10.0314 18.3649 11.9683 18.3649 13.894 18.5341C14.9341 18.607 15.9678 18.7524 16.9876 18.9691C18.4015 19.2592 20.1054 19.8392 20.7096 21.1081C21.0968 21.9224 21.0968 22.8677 20.7096 23.682C20.1054 24.9509 18.4015 25.5309 16.9876 25.8089C15.9691 26.0355 14.935 26.1849 13.894 26.256C12.3266 26.3889 10.7519 26.4131 9.18114 26.3285C8.81861 26.3285 8.46816 26.3285 8.10563 26.256C7.06856 26.1858 6.03838 26.0363 5.02413 25.8089C3.59817 25.5309 1.90637 24.9509 1.29007 23.682C1.09851 23.2779 0.999429 22.8362 1.00002 22.389Z" stroke="white" stroke-width="1.5" stroke-linecap="round" stroke-linejoin="round"/>
</svg>
