<svg width="29" height="30" viewBox="0 0 29 30" fill="none" xmlns="http://www.w3.org/2000/svg">
<path d="M29 10.4527V6.10273C28.9989 5.71852 28.8457 5.35038 28.574 5.0787C28.3024 4.80702 27.9342 4.65388 27.55 4.65273H21.75V2.23607C21.75 2.10788 21.6991 1.98494 21.6084 1.8943C21.5178 1.80366 21.3949 1.75273 21.2667 1.75273H19.8167V0.786068C19.8167 0.65788 19.7657 0.534942 19.6751 0.444299C19.5845 0.353657 19.4615 0.302734 19.3333 0.302734H9.66667C9.53848 0.302734 9.41554 0.353657 9.3249 0.444299C9.23426 0.534942 9.18333 0.65788 9.18333 0.786068V1.75273H7.73333C7.60515 1.75273 7.48221 1.80366 7.39156 1.8943C7.30092 1.98494 7.25 2.10788 7.25 2.23607V4.65273H1.45C1.06579 4.65388 0.697642 4.80702 0.425963 5.0787C0.154283 5.35038 0.00114748 5.71852 0 6.10273V10.4527C0 10.5809 0.0509225 10.7039 0.141565 10.7945C0.232208 10.8851 0.355145 10.9361 0.483333 10.9361V15.7694C0.355145 15.7694 0.232208 15.8203 0.141565 15.911C0.0509225 16.0016 0 16.1245 0 16.2527V25.9194C0 26.0476 0.0509225 26.1705 0.141565 26.2612C0.232208 26.3518 0.355145 26.4027 0.483333 26.4027V27.3694C0.484098 27.6255 0.586189 27.871 0.767309 28.0521C0.948428 28.2332 1.19386 28.3353 1.45 28.3361H13.5333V28.8194C13.5333 28.9476 13.5843 29.0705 13.6749 29.1612C13.7655 29.2518 13.8885 29.3027 14.0167 29.3027H28.5167C28.6449 29.3027 28.7678 29.2518 28.8584 29.1612C28.9491 29.0705 29 28.9476 29 28.8194V14.8027C28.999 14.6746 28.9489 14.5517 28.8598 14.4596L28.5167 14.1212V10.9361C28.6449 10.9361 28.7678 10.8851 28.8584 10.7945C28.9491 10.7039 29 10.5809 29 10.4527ZM10.15 1.2694H18.85V3.20273H10.15V1.2694ZM8.21667 2.7194H9.18333V3.68607C9.18333 3.81426 9.23426 3.93719 9.3249 4.02784C9.41554 4.11848 9.53848 4.1694 9.66667 4.1694H19.3333C19.4615 4.1694 19.5845 4.11848 19.6751 4.02784C19.7657 3.93719 19.8167 3.81426 19.8167 3.68607V2.7194H20.7833V4.65273H8.21667V2.7194ZM13.5333 27.3694H1.45V26.4027H13.5333V27.3694ZM0.966667 25.4361V16.7361H6.37033C6.47066 17.0177 6.65532 17.2616 6.89921 17.4346C7.14309 17.6076 7.43434 17.7012 7.73333 17.7027H8.7C8.99899 17.7012 9.29024 17.6076 9.53413 17.4346C9.77801 17.2616 9.96268 17.0177 10.063 16.7361H15.4667V25.4361H0.966667ZM5.31667 12.8694H8.21667C8.34485 12.8694 8.46779 12.8185 8.55844 12.7278C8.64908 12.6372 8.7 12.5143 8.7 12.3861V10.9361H20.3V11.4194H14.0167C13.8885 11.4194 13.7655 11.4703 13.6749 11.561C13.5843 11.6516 13.5333 11.7745 13.5333 11.9027V15.7694H10.15V14.3194C10.15 14.1912 10.0991 14.0683 10.0084 13.9776C9.91779 13.887 9.79485 13.8361 9.66667 13.8361H6.76667C6.63848 13.8361 6.51554 13.887 6.4249 13.9776C6.33426 14.0683 6.28333 14.1912 6.28333 14.3194V15.7694H1.45V10.9361H4.83333V12.3861C4.83333 12.5143 4.88426 12.6372 4.9749 12.7278C5.06554 12.8185 5.18848 12.8694 5.31667 12.8694ZM5.8 11.9027V9.9694H7.73333V11.9027H5.8ZM9.18333 14.8027V16.2527C9.18333 16.3809 9.13241 16.5039 9.04177 16.5945C8.95113 16.6851 8.82819 16.7361 8.7 16.7361H7.73333C7.60515 16.7361 7.48221 16.6851 7.39156 16.5945C7.30092 16.5039 7.25 16.3809 7.25 16.2527V14.8027H9.18333ZM28.0333 28.3361H14.5V26.4027H15.95C16.0782 26.4027 16.2011 26.3518 16.2918 26.2612C16.3824 26.1705 16.4333 26.0476 16.4333 25.9194V24.9527H26.5833V23.9861H16.4333V22.5361H26.5833V21.5694H16.4333V20.1194H26.5833V19.1527H16.4333V17.7027H26.5833V16.7361H16.4333V16.2527C16.4333 16.1245 16.3824 16.0016 16.2918 15.911C16.2011 15.8203 16.0782 15.7694 15.95 15.7694H14.5V12.3861H25.1333V14.8027C25.1333 14.9309 25.1843 15.0539 25.2749 15.1445C25.3655 15.2351 25.4885 15.2861 25.6167 15.2861H28.0333V28.3361ZM21.2667 11.4194V9.9694H23.2V11.4194H21.2667ZM25.9598 11.5596C25.8677 11.4705 25.7448 11.4204 25.6167 11.4194H24.1667V10.9361H27.55V13.1546L25.9598 11.5596ZM27.3518 14.3194H26.1V13.0676L27.3518 14.3194ZM28.0333 9.9694H24.1667V9.48607C24.1667 9.35788 24.1157 9.23494 24.0251 9.1443C23.9345 9.05366 23.8115 9.00273 23.6833 9.00273H20.7833C20.6551 9.00273 20.5322 9.05366 20.4416 9.1443C20.3509 9.23494 20.3 9.35788 20.3 9.48607V9.9694H8.7V9.48607C8.7 9.35788 8.64908 9.23494 8.55844 9.1443C8.46779 9.05366 8.34485 9.00273 8.21667 9.00273H5.31667C5.18848 9.00273 5.06554 9.05366 4.9749 9.1443C4.88426 9.23494 4.83333 9.35788 4.83333 9.48607V9.9694H0.966667V6.10273C0.966667 5.97455 1.01759 5.85161 1.10823 5.76097C1.19887 5.67032 1.32181 5.6194 1.45 5.6194H27.55C27.6782 5.6194 27.8011 5.67032 27.8918 5.76097C27.9824 5.85161 28.0333 5.97455 28.0333 6.10273V9.9694Z" fill="white"/>
<path d="M20.7826 14.3193H15.9492V15.286H20.7826V14.3193Z" fill="white"/>
<path d="M26.5826 26.4023H15.9492V27.369H26.5826V26.4023Z" fill="white"/>
<path d="M7.73255 18.1865H1.93255C1.80436 18.1865 1.68143 18.2374 1.59078 18.3281C1.50014 18.4187 1.44922 18.5417 1.44922 18.6699V24.4699C1.44922 24.598 1.50014 24.721 1.59078 24.8116C1.68143 24.9023 1.80436 24.9532 1.93255 24.9532H7.73255C7.86074 24.9532 7.98368 24.9023 8.07432 24.8116C8.16496 24.721 8.21589 24.598 8.21589 24.4699V18.6699C8.21589 18.5417 8.16496 18.4187 8.07432 18.3281C7.98368 18.2374 7.86074 18.1865 7.73255 18.1865ZM5.79922 23.9865H3.86589V23.5032C3.86589 23.2468 3.96773 23.0009 4.14902 22.8197C4.3303 22.6384 4.57618 22.5365 4.83255 22.5365C5.08893 22.5365 5.3348 22.6384 5.51609 22.8197C5.69737 23.0009 5.79922 23.2468 5.79922 23.5032V23.9865ZM4.34922 21.0865C4.34922 20.9909 4.37757 20.8975 4.43068 20.818C4.48378 20.7385 4.55927 20.6766 4.64759 20.64C4.73591 20.6034 4.83309 20.5938 4.92685 20.6125C5.0206 20.6311 5.10672 20.6772 5.17432 20.7448C5.24192 20.8124 5.28795 20.8985 5.3066 20.9922C5.32525 21.086 5.31568 21.1832 5.27909 21.2715C5.24251 21.3598 5.18056 21.4353 5.10108 21.4884C5.02159 21.5415 4.92815 21.5699 4.83255 21.5699C4.70436 21.5699 4.58143 21.5189 4.49078 21.4283C4.40014 21.3376 4.34922 21.2147 4.34922 21.0865ZM7.24922 23.9865H6.76589V23.5032C6.76529 23.2021 6.69415 22.9054 6.55818 22.6368C6.4222 22.3682 6.22517 22.1352 5.98289 21.9565C6.1756 21.7073 6.2809 21.4016 6.28255 21.0865C6.28255 20.702 6.12978 20.3331 5.85786 20.0612C5.58593 19.7893 5.21712 19.6365 4.83255 19.6365C4.44799 19.6365 4.07917 19.7893 3.80725 20.0612C3.53532 20.3331 3.38255 20.702 3.38255 21.0865C3.3842 21.4016 3.48951 21.7073 3.68222 21.9565C3.43994 22.1352 3.2429 22.3682 3.10693 22.6368C2.97095 22.9054 2.89981 23.2021 2.89922 23.5032V23.9865H2.41589V19.1532H7.24922V23.9865Z" fill="white"/>
<path d="M14.5003 19.6357H9.18359V20.6024H14.5003V19.6357Z" fill="white"/>
<path d="M11.6003 21.5693H9.18359V22.536H11.6003V21.5693Z" fill="white"/>
<path d="M14.4997 21.5693H12.5664V22.536H14.4997V21.5693Z" fill="white"/>
<path d="M8.69909 15.2861H7.73242V16.2528H8.69909V15.2861Z" fill="white"/>
</svg>
