<svg width="24" height="24" viewBox="0 0 24 24" fill="none" xmlns="http://www.w3.org/2000/svg">
<path d="M12 0C5.3824 0 0 5.3824 0 12C0 18.6176 5.3824 24 12 24C18.6176 24 24 18.6176 24 12C24 5.3824 18.6176 0 12 0ZM12 1.6C17.7536 1.6 22.4 6.2464 22.4 12C22.4 17.7536 17.7536 22.4 12 22.4C10.6338 22.4017 9.28065 22.1338 8.0181 21.6118C6.75555 21.0897 5.6084 20.3237 4.64233 19.3577C3.67627 18.3916 2.91027 17.2444 2.38822 15.9819C1.86617 14.7194 1.59832 13.3662 1.6 12C1.6 6.2464 6.2464 1.6 12 1.6ZM11.68 4.0096C11.1168 4.05578 10.5697 4.22054 10.0747 4.49305C9.57968 4.76556 9.14787 5.13967 8.80761 5.59083C8.46736 6.04199 8.22634 6.55999 8.10039 7.11086C7.97445 7.66173 7.9664 8.23301 8.0768 8.7872C8.1186 8.99534 8.24137 9.17836 8.4181 9.29598C8.59484 9.4136 8.81106 9.4562 9.0192 9.4144C9.22734 9.3726 9.41036 9.24983 9.52798 9.0731C9.6456 8.89636 9.6882 8.68014 9.6464 8.472C9.54811 7.9864 9.60272 7.48228 9.80272 7.029C10.0027 6.57571 10.3383 6.19554 10.7632 5.9408C11.187 5.68434 11.6799 5.5655 12.174 5.60061C12.6681 5.63573 13.1392 5.82308 13.5225 6.13689C13.9057 6.4507 14.1824 6.87557 14.3143 7.35304C14.4462 7.8305 14.427 8.33712 14.2592 8.8032C14.0937 9.26988 13.7876 9.67375 13.3829 9.95916C12.9783 10.2446 12.4952 10.3975 12 10.3968C11.8786 10.3955 11.7584 10.4218 11.6487 10.4738C11.539 10.5259 11.4425 10.6022 11.3666 10.697C11.2908 10.7918 11.2375 10.9027 11.2109 11.0212C11.1842 11.1396 11.1849 11.2626 11.2128 11.3808V16.1488C11.2128 16.361 11.2971 16.5645 11.4471 16.7145C11.5971 16.8645 11.8006 16.9488 12.0128 16.9488C12.225 16.9488 12.4285 16.8645 12.5785 16.7145C12.7285 16.5645 12.8128 16.361 12.8128 16.1488V11.9072C13.4835 11.7683 14.1073 11.4596 14.6245 11.0105C15.1417 10.5614 15.5349 9.98702 15.7664 9.3424C15.9911 8.71326 16.0547 8.03784 15.9513 7.37782C15.8479 6.71779 15.5809 6.09416 15.1745 5.56387C14.7682 5.03358 14.2355 4.61351 13.6251 4.34202C13.0146 4.07052 12.3459 3.95623 11.68 4.0096ZM12.0128 18.4896C11.8006 18.4896 11.5971 18.5739 11.4471 18.7239C11.2971 18.8739 11.2128 19.0774 11.2128 19.2896C11.2128 19.5018 11.2971 19.7053 11.4471 19.8553C11.5971 20.0053 11.8006 20.0896 12.0128 20.0896C12.225 20.0896 12.4285 20.0053 12.5785 19.8553C12.7285 19.7053 12.8128 19.5018 12.8128 19.2896C12.8128 19.0774 12.7285 18.8739 12.5785 18.7239C12.4285 18.5739 12.225 18.4896 12.0128 18.4896Z" fill="#F58244"/>
</svg>
