<svg width="28" height="27" viewBox="0 0 28 27" fill="none" xmlns="http://www.w3.org/2000/svg">
<path d="M5.2017 2.22257C5.54274 1.87348 5.61719 1.26517 5.368 0.863888C5.11879 0.462603 4.64031 0.420287 4.29927 0.769386L2.68171 2.42513C1.76417 3.36432 1.11156 4.65322 0.838054 6.06633L0.170911 9.51321C0.0692477 10.0385 0.319189 10.5322 0.729158 10.6159C1.13912 10.6997 1.55389 10.3418 1.65555 9.81655L2.32268 6.36967C2.50982 5.4028 2.95634 4.52093 3.58414 3.87832L5.2017 2.22257Z" fill="black"/>
<path d="M22.1663 2.22257C21.8253 1.87348 21.7508 1.26517 22 0.863888C22.2492 0.462603 22.7277 0.420287 23.0687 0.769386L24.6863 2.42513C25.6038 3.36432 26.2564 4.65322 26.5299 6.06633L27.1971 9.51321C27.2987 10.0385 27.0488 10.5322 26.6388 10.6159C26.2289 10.6997 25.8141 10.3418 25.7124 9.81655L25.0453 6.36967C24.8582 5.4028 24.4117 4.52093 23.7839 3.87832L22.1663 2.22257Z" fill="black"/>
<path d="M11.0011 24.6373C11.5563 25.3342 12.3717 25.7852 13.2667 25.8906C14.1617 25.9959 15.0626 25.7468 15.77 25.1985C15.9876 25.0363 16.1833 24.8478 16.3526 24.6373M4.2685 16.7809V16.5374C4.30422 15.8169 4.53514 15.1188 4.93744 14.5151C5.60707 13.7899 6.06546 12.9011 6.26454 11.9422C6.26454 11.201 6.26453 10.4492 6.32927 9.70808C6.66374 6.13988 10.1919 3.67285 13.6769 3.67285H13.7632C17.2481 3.67285 20.7763 6.13988 21.1215 9.70808C21.1863 10.4492 21.1215 11.201 21.1755 11.9422C21.3772 12.9034 21.8352 13.7948 22.5026 14.5257C22.9079 15.124 23.1392 15.8196 23.1715 16.5374V16.7703C23.1956 17.7383 22.8622 18.6822 22.2328 19.428C21.4012 20.2999 20.2726 20.8424 19.0608 20.9527C15.5072 21.3338 11.922 21.3338 8.36847 20.9527C7.158 20.8376 6.03105 20.2959 5.19638 19.428C4.57673 18.6817 4.24783 17.7434 4.2685 16.7809Z" stroke="black" stroke-width="1.5" stroke-linecap="round" stroke-linejoin="round"/>
</svg>
