<svg width="25" height="24" viewBox="0 0 25 24" fill="none" xmlns="http://www.w3.org/2000/svg">
<path d="M23.0831 8.57903C22.7791 8.4014 22.5421 8.1336 22.407 7.81521C22.2719 7.49681 22.246 7.14471 22.3331 6.81093C22.4916 6.21119 22.4861 5.58174 22.3174 4.98466C22.1486 4.38758 21.8223 3.8435 21.3706 3.40607C20.919 2.96865 20.3576 2.653 19.7419 2.49025C19.1261 2.32751 18.4773 2.32329 17.8594 2.47801C17.5159 2.56224 17.1536 2.53697 16.826 2.40593C16.4985 2.27489 16.2231 2.04504 16.0406 1.75039C15.7156 1.21881 15.2536 0.778442 14.7 0.472571C14.1464 0.166701 13.5202 0.00585937 12.8831 0.00585938C12.246 0.00585937 11.6199 0.166701 11.0663 0.472571C10.5127 0.778442 10.0507 1.21881 9.72564 1.75039C9.54342 2.04618 9.26748 2.27687 8.93901 2.408C8.61055 2.53914 8.24717 2.5637 7.90313 2.47801C7.28532 2.32457 6.63696 2.32992 6.02193 2.49351C5.40689 2.65711 4.84639 2.97332 4.39563 3.41099C3.94487 3.84866 3.61941 4.39269 3.45129 4.98951C3.28318 5.58632 3.27821 6.21533 3.43688 6.81457C3.52433 7.14782 3.49857 7.49954 3.36344 7.81744C3.22832 8.13535 2.99103 8.40245 2.68688 8.57903C2.13895 8.89437 1.68503 9.34261 1.36974 9.87969C1.05446 10.4168 0.888672 11.0242 0.888672 11.6423C0.888672 12.2604 1.05446 12.8678 1.36974 13.4049C1.68503 13.9419 2.13895 14.3902 2.68688 14.7055C2.99134 14.8827 3.22876 15.1505 3.36387 15.469C3.49899 15.7875 3.52459 16.1399 3.43688 16.4736C3.27873 17.073 3.28424 17.702 3.45287 18.2987C3.6215 18.8954 3.94744 19.4391 4.39857 19.8764C4.84971 20.3137 5.41049 20.6295 6.02566 20.7926C6.64084 20.9557 7.2892 20.9605 7.90688 20.8066C8.25039 20.7223 8.61271 20.7476 8.94026 20.8786C9.26781 21.0097 9.54318 21.2395 9.72564 21.5342C10.0507 22.0657 10.5127 22.5061 11.0663 22.812C11.6199 23.1179 12.246 23.2787 12.8831 23.2787C13.5202 23.2787 14.1464 23.1179 14.7 22.812C15.2536 22.5061 15.7156 22.0657 16.0406 21.5342C16.2237 21.2392 16.4998 21.0092 16.828 20.8782C17.1562 20.7472 17.5191 20.7221 17.8631 20.8066C18.4809 20.96 19.1293 20.9546 19.7443 20.791C20.3594 20.6274 20.9199 20.3112 21.3706 19.8736C21.8214 19.4359 22.1469 18.8919 22.315 18.295C22.4831 17.6982 22.4881 17.0692 22.3294 16.47C22.2426 16.1367 22.2686 15.7852 22.4037 15.4675C22.5388 15.1497 22.7757 14.8825 23.0794 14.7055C23.6273 14.3902 24.0812 13.9419 24.3965 13.4049C24.7118 12.8678 24.8776 12.2604 24.8776 11.6423C24.8776 11.0242 24.7118 10.4168 24.3965 9.87969C24.0812 9.34261 23.6273 8.89437 23.0794 8.57903H23.0831ZM22.0481 13.0102C21.3694 13.4082 20.8409 14.0078 20.541 14.7201C20.2411 15.4324 20.1857 16.2195 20.3831 16.9648C20.4535 17.2325 20.4507 17.5134 20.3751 17.7798C20.2994 18.0461 20.1535 18.2888 19.9518 18.4838C19.75 18.6788 19.4993 18.8194 19.2245 18.8918C18.9496 18.9642 18.6601 18.9658 18.3844 18.8966C17.6144 18.7091 16.8026 18.7671 16.0692 19.062C15.3357 19.3568 14.7196 19.8728 14.3119 20.5337C14.1676 20.7721 13.9616 20.9698 13.7143 21.1072C13.4669 21.2446 13.1869 21.3169 12.9019 21.3169C12.6169 21.3169 12.3368 21.2446 12.0895 21.1072C11.8422 20.9698 11.6362 20.7721 11.4919 20.5337C11.1644 20.0017 10.7003 19.5611 10.1449 19.255C9.58957 18.949 8.96187 18.7879 8.32314 18.7874C8.01691 18.7873 7.71193 18.8252 7.41563 18.9002C7.13966 18.9685 6.85012 18.9658 6.57555 18.8924C6.30098 18.819 6.05087 18.6775 5.84987 18.4817C5.64886 18.286 5.50391 18.0428 5.4293 17.7762C5.35469 17.5095 5.35299 17.2286 5.42438 16.9611C5.6182 16.2141 5.55872 15.4263 5.25476 14.7147C4.95079 14.003 4.41853 13.4053 3.73688 13.0102C3.49111 12.8702 3.28731 12.6703 3.14571 12.4304C3.0041 12.1905 2.92961 11.9188 2.92961 11.6423C2.92961 11.3658 3.0041 11.0941 3.14571 10.8542C3.28731 10.6142 3.49111 10.4143 3.73688 10.2744C4.41903 9.87896 4.95138 9.28049 5.25475 8.56797C5.55812 7.85546 5.6163 7.06697 5.42063 6.3198C5.35116 6.05183 5.35471 5.77094 5.43092 5.5047C5.50714 5.23846 5.65341 4.99602 5.85537 4.80119C6.05734 4.60635 6.30805 4.46582 6.58291 4.39338C6.85777 4.32094 7.14732 4.31908 7.42314 4.38799C8.19262 4.57517 9.00379 4.51703 9.73657 4.22218C10.4694 3.92733 11.0848 3.41144 11.4919 2.75086C11.6362 2.51242 11.8422 2.31471 12.0895 2.17733C12.3368 2.03995 12.6169 1.96768 12.9019 1.96768C13.1869 1.96768 13.4669 2.03995 13.7143 2.17733C13.9616 2.31471 14.1676 2.51242 14.3119 2.75086C14.7195 3.41264 15.3363 3.9291 16.0708 4.22341C16.8052 4.51773 17.618 4.57417 18.3881 4.38435C18.6642 4.31645 18.9538 4.31936 19.2283 4.3928C19.5029 4.46625 19.7531 4.60769 19.9543 4.80326C20.1555 4.99883 20.3008 5.24179 20.376 5.50831C20.4512 5.77482 20.4536 6.05572 20.3831 6.32343C20.1877 7.07008 20.2461 7.85798 20.5495 8.56987C20.8528 9.28176 21.385 9.87958 22.0669 10.2744C22.3127 10.4143 22.5165 10.6142 22.6581 10.8542C22.7997 11.0941 22.8742 11.3658 22.8742 11.6423C22.8742 11.9188 22.7997 12.1905 22.6581 12.4304C22.5165 12.6703 22.3127 12.8702 22.0669 13.0102H22.0481Z" fill="#F58244"/>
<path d="M12.8833 6.71973C11.8798 6.71973 10.8989 7.00841 10.0645 7.54928C9.23012 8.09015 8.57981 8.85891 8.19579 9.75834C7.81177 10.6578 7.71129 11.6475 7.90706 12.6023C8.10283 13.5571 8.58606 14.4342 9.29564 15.1226C10.0052 15.811 10.9093 16.2798 11.8935 16.4697C12.8777 16.6597 13.8979 16.5622 14.825 16.1896C15.7521 15.8171 16.5445 15.1862 17.102 14.3767C17.6595 13.5672 17.9571 12.6156 17.9571 11.642C17.9551 10.3371 17.4199 9.08625 16.4688 8.16356C15.5177 7.24087 14.2284 6.72165 12.8833 6.71973V6.71973ZM12.8833 14.5961C12.2811 14.5961 11.6924 14.4229 11.1916 14.0983C10.6909 13.7737 10.3006 13.3123 10.0701 12.7725C9.83964 12.2327 9.77934 11.6387 9.89683 11.0657C10.0143 10.4927 10.3043 9.96629 10.7302 9.55315C11.156 9.14002 11.6986 8.85866 12.2893 8.74468C12.8799 8.63069 13.4922 8.6892 14.0486 8.91279C14.605 9.13637 15.0806 9.51501 15.4151 10.0008C15.7497 10.4866 15.9283 11.0578 15.9283 11.642C15.9273 12.4252 15.6062 13.176 15.0354 13.7298C14.4645 14.2836 13.6906 14.5952 12.8833 14.5961V14.5961Z" fill="#F58244"/>
</svg>
