<svg width="19" height="19" viewBox="0 0 19 19" fill="none" xmlns="http://www.w3.org/2000/svg">
<path d="M9.5 0C4.26194 0 0 4.26194 0 9.5C0 12.3069 1.22471 14.8327 3.16667 16.5731V16.5799L3.30442 16.6986C3.32856 16.7196 3.35508 16.737 3.37963 16.7576C3.77562 17.0915 4.19775 17.3932 4.64194 17.6597C4.67558 17.6799 4.71002 17.6989 4.74367 17.7183C4.96415 17.8465 5.18938 17.9673 5.42054 18.0777L5.42767 18.0809C5.92637 18.318 6.44492 18.5108 6.97735 18.6572L7.00704 18.6655C7.26077 18.7348 7.51885 18.793 7.7805 18.8409L7.85373 18.8539C8.10806 18.8989 8.36412 18.9335 8.62125 18.9576C8.65094 18.9604 8.68062 18.962 8.70992 18.9644C8.97077 18.9861 9.2336 19 9.5 19C9.7664 19 10.0292 18.9861 10.2901 18.9644C10.3198 18.962 10.3495 18.9604 10.3787 18.9576C10.638 18.9339 10.8937 18.8983 11.1463 18.8539L11.2195 18.8409C11.4797 18.7935 11.7378 18.735 11.993 18.6655L12.0226 18.6572C12.5551 18.5108 13.0736 18.318 13.5723 18.0809L13.5795 18.0777C13.8098 17.967 14.0356 17.8471 14.2563 17.7183C14.2904 17.6985 14.3244 17.6799 14.3581 17.6597C14.5589 17.5392 14.7552 17.4114 14.9467 17.2765C14.9957 17.2421 15.0448 17.2077 15.0935 17.172C15.274 17.0398 15.4498 16.9017 15.6204 16.7576C15.6449 16.737 15.6714 16.7196 15.6956 16.6986L15.8333 16.5799V16.5731C17.7753 14.8323 19 12.3069 19 9.5C19 4.26194 14.7381 0 9.5 0ZM9.5 9.5C7.75398 9.5 6.33333 8.07935 6.33333 6.33333C6.33333 4.58731 7.75398 3.16667 9.5 3.16667C11.246 3.16667 12.6667 4.58731 12.6667 6.33333C12.6667 8.07935 11.246 9.5 9.5 9.5ZM10.6875 10.2917C13.0882 10.2917 15.0417 12.2451 15.0417 14.6458V16.2125C15.025 16.2264 15.0076 16.2391 14.991 16.2529C14.8346 16.38 14.6743 16.5007 14.5105 16.6163C14.474 16.642 14.4384 16.6685 14.402 16.6935C14.2251 16.8142 14.0434 16.9274 13.8585 17.0347L13.7568 17.0933C12.9116 17.5695 11.9921 17.8998 11.037 18.0702L10.9693 18.0825C10.7443 18.1209 10.5178 18.1506 10.2905 18.1715C10.2592 18.1743 10.2275 18.1763 10.1959 18.1786C9.9651 18.1965 9.73315 18.2083 9.5 18.2083C9.26685 18.2083 9.0349 18.1965 8.80413 18.1779L8.70952 18.1707C8.45932 18.1478 8.21023 18.114 7.96298 18.0694C7.25124 17.9413 6.55822 17.7251 5.8999 17.4258L5.83617 17.3969C5.59923 17.2865 5.36742 17.1653 5.14148 17.0339C4.95663 16.927 4.77494 16.8134 4.598 16.6927C4.56119 16.6678 4.52556 16.6412 4.48954 16.6155C4.32519 16.5 4.16491 16.3788 4.009 16.2521C3.99238 16.2387 3.97496 16.2256 3.95833 16.2118V14.6458C3.95833 12.2451 5.91177 10.2917 8.3125 10.2917H10.6875ZM15.8333 15.4676V14.6458C15.8333 12.1636 14.0663 10.0862 11.7246 9.6049C12.2585 9.24232 12.6955 8.75466 12.9977 8.18442C13.2999 7.61419 13.4581 6.97869 13.4583 6.33333C13.4583 4.15071 11.6826 2.375 9.5 2.375C7.31738 2.375 5.54167 4.15071 5.54167 6.33333C5.54194 6.97869 5.70007 7.61419 6.00226 8.18442C6.30445 8.75466 6.74154 9.24232 7.27542 9.6049C4.93367 10.0862 3.16667 12.1636 3.16667 14.6458V15.4676C1.69575 13.9076 0.791667 11.8081 0.791667 9.5C0.791667 4.69815 4.69815 0.791667 9.5 0.791667C14.3019 0.791667 18.2083 4.69815 18.2083 9.5C18.2083 11.8081 17.3043 13.9076 15.8333 15.4676Z" fill="black"/>
</svg>
