<svg width="24" height="23" viewBox="0 0 24 23" fill="none" xmlns="http://www.w3.org/2000/svg">
<path d="M22.5 9.64528V5.1937C22.5 4.80016 22.342 4.42273 22.0607 4.14446C21.7794 3.86618 21.3978 3.70984 21 3.70984H20.553L20.0475 0.62342C20.0321 0.527282 19.9974 0.435141 19.9457 0.352351C19.8939 0.269562 19.8261 0.197776 19.746 0.141166C19.6667 0.0832561 19.5764 0.0418309 19.4805 0.0193887C19.3846 -0.00305359 19.2851 -0.00604791 19.188 0.0105862L2.88 2.62811C2.7827 2.64361 2.68945 2.67796 2.60561 2.7292C2.52176 2.78044 2.44897 2.84755 2.39141 2.92669C2.33385 3.00583 2.29266 3.09543 2.27019 3.19035C2.24773 3.28528 2.24443 3.38366 2.2605 3.47985L2.298 3.70984H1.5C1.10218 3.70984 0.720644 3.86618 0.43934 4.14446C0.158035 4.42273 0 4.80016 0 5.1937L0 21.5161C0 21.9097 0.158035 22.2871 0.43934 22.5654C0.720644 22.8437 1.10218 23 1.5 23H21C21.3978 23 21.7794 22.8437 22.0607 22.5654C22.342 22.2871 22.5 21.9097 22.5 21.5161V17.0646C22.8978 17.0646 23.2794 16.9082 23.5607 16.63C23.842 16.3517 24 15.9743 24 15.5807V11.1291C24 10.7356 23.842 10.3582 23.5607 10.0799C23.2794 9.80161 22.8978 9.64528 22.5 9.64528ZM1.5 5.1937H21V9.64528H15C14.6022 9.64528 14.2206 9.80161 13.9393 10.0799C13.658 10.3582 13.5 10.7356 13.5 11.1291V15.5807C13.5 15.9743 13.658 16.3517 13.9393 16.63C14.2206 16.9082 14.6022 17.0646 15 17.0646H21V21.5161H1.5V5.1937ZM5.502 3.70984L18.687 1.59238L19.0335 3.70984H5.502ZM15 15.5807V11.1291H22.5V15.5807H15ZM16.5 13.3549C16.5 13.5517 16.579 13.7404 16.7197 13.8795C16.8603 14.0187 17.0511 14.0969 17.25 14.0969C17.4489 14.0969 17.6397 14.0187 17.7803 13.8795C17.921 13.7404 18 13.5517 18 13.3549C18 13.1582 17.921 12.9694 17.7803 12.8303C17.6397 12.6912 17.4489 12.613 17.25 12.613C17.0511 12.613 16.8603 12.6912 16.7197 12.8303C16.579 12.9694 16.5 13.1582 16.5 13.3549Z" fill="#F58244"/>
</svg>
